<?xml version="1.0" standalone="no"?>
<!DOCTYPE svg PUBLIC "-//W3C//DTD SVG 20010904//EN"
 "http://www.w3.org/TR/2001/REC-SVG-20010904/DTD/svg10.dtd">
<svg version="1.0" xmlns="http://www.w3.org/2000/svg"
 width="199.000000pt" height="183.000000pt" viewBox="0 0 199.000000 183.000000"
 preserveAspectRatio="xMidYMid meet">

<g transform="translate(0.000000,183.000000) scale(0.100000,-0.100000)"
fill="#000000" stroke="none">
<path d="M870 1730 c-166 -23 -327 -101 -450 -217 -73 -68 -175 -208 -164
-224 3 -6 26 20 50 58 105 159 260 274 454 334 64 20 96 23 220 23 124 0 156
-3 220 -23 276 -86 465 -275 552 -551 20 -64 23 -96 23 -220 0 -124 -3 -156
-23 -220 -61 -194 -176 -349 -335 -454 -38 -24 -64 -47 -58 -50 16 -10 155 91
224 163 343 364 283 941 -129 1237 -160 115 -387 171 -584 144z"/>
<path d="M581 1303 l-44 -4 7 -172 c3 -95 9 -274 13 -399 l6 -228 119 0 118 0
0 75 0 74 38 6 c68 12 99 25 141 61 127 109 144 355 35 483 -79 92 -210 123
-433 104z m311 -350 c12 -11 18 -30 18 -60 0 -36 -6 -50 -29 -74 -16 -16 -39
-29 -50 -29 -20 0 -21 6 -21 90 l0 90 32 0 c17 0 40 -7 50 -17z"/>
<path d="M1225 1296 c-109 -49 -143 -182 -86 -334 37 -95 47 -139 56 -222 l6
-66 -33 -14 c-94 -42 -58 -180 47 -180 42 0 85 50 85 98 0 33 -6 45 -32 67
l-32 27 37 72 c21 40 65 104 98 142 85 96 113 160 105 233 -16 139 -140 226
-251 177z"/>
<path d="M1277 485 c-18 -16 -42 -26 -65 -26 -34 -2 -35 -2 -7 -6 32 -5 90 20
99 43 7 18 6 18 -27 -11z"/>
</g>
</svg>
